<mxfile host="app.diagrams.net" modified="2023-10-03T18:32:14.051Z" agent="Mozilla/5.0 (Windows NT 10.0; Win64; x64) AppleWebKit/537.36 (KHTML, like Gecko) Chrome/117.0.0.0 Safari/537.36" etag="LYbLNfEMIp6odACjl5XH" version="22.0.2" type="github">
  <diagram name="Page-1" id="pwl34D0nIpq8MzUBNVUg">
    <mxGraphModel dx="1500" dy="820" grid="0" gridSize="10" guides="1" tooltips="1" connect="1" arrows="1" fold="1" page="1" pageScale="1" pageWidth="827" pageHeight="1169" math="0" shadow="0">
      <root>
        <mxCell id="0" />
        <mxCell id="1" parent="0" />
        <mxCell id="7AM2JiQvm8H476ATyaQK-1" value="" style="html=1;jettySize=18;whiteSpace=wrap;fontSize=13;fontFamily=helvetica;strokeColor=#333333;strokeOpacity=100;dashed=1;fixDash=1;dashPattern=16 6;strokeWidth=0.8;rounded=1;arcSize=24;edgeStyle=orthogonalEdgeStyle;startArrow=none;endArrow=none;exitX=0.5;exitY=1;exitPerimeter=0;lucidId=Yu5MXQ6BOCr2;" edge="1" parent="1">
          <mxGeometry width="100" height="100" relative="1" as="geometry">
            <Array as="points" />
            <mxPoint x="794.44" y="820" as="targetPoint" />
            <mxPoint x="794.44" y="763" as="sourcePoint" />
          </mxGeometry>
        </mxCell>
        <mxCell id="7AM2JiQvm8H476ATyaQK-2" value="" style="html=1;jettySize=18;whiteSpace=wrap;fontSize=13;fontFamily=helvetica;strokeColor=#333333;strokeOpacity=100;dashed=1;fixDash=1;dashPattern=16 6;strokeWidth=0.8;rounded=1;arcSize=24;edgeStyle=orthogonalEdgeStyle;startArrow=none;endArrow=none;exitX=0.5;exitY=1;exitPerimeter=0;lucidId=Yu5M5Qxgzhy9;" edge="1" parent="1" source="7AM2JiQvm8H476ATyaQK-16">
          <mxGeometry width="100" height="100" relative="1" as="geometry">
            <Array as="points" />
            <mxPoint x="1065" y="947" as="targetPoint" />
          </mxGeometry>
        </mxCell>
        <mxCell id="7AM2JiQvm8H476ATyaQK-4" value="Interfaz de Chat" style="html=1;overflow=block;blockSpacing=1;whiteSpace=wrap;fontSize=13.3;fontColor=#000000;fontStyle=6;align=center;spacing=0;strokeOpacity=0;fillOpacity=100;rounded=1;absoluteArcSize=1;arcSize=12;fillColor=#fa6800;strokeWidth=0.8;strokeColor=#C73500;" vertex="1" parent="1">
          <mxGeometry x="453" y="165" width="143" height="90" as="geometry" />
        </mxCell>
        <mxCell id="7AM2JiQvm8H476ATyaQK-5" value="Sistema" style="html=1;overflow=block;blockSpacing=1;whiteSpace=wrap;fontSize=13.3;fontColor=#000000;fontStyle=6;align=center;spacing=0;strokeOpacity=0;fillOpacity=100;rounded=1;absoluteArcSize=1;arcSize=12;fillColor=#fa6800;strokeWidth=0.8;strokeColor=#C73500;" vertex="1" parent="1">
          <mxGeometry x="723" y="165" width="143" height="90" as="geometry" />
        </mxCell>
        <mxCell id="7AM2JiQvm8H476ATyaQK-6" value="Base de datos" style="html=1;overflow=block;blockSpacing=1;whiteSpace=wrap;fontSize=13.3;fontColor=#000000;fontStyle=6;align=center;spacing=0;strokeOpacity=0;fillOpacity=100;rounded=1;absoluteArcSize=1;arcSize=12;fillColor=#fa6800;strokeWidth=0.8;strokeColor=#C73500;" vertex="1" parent="1">
          <mxGeometry x="994" y="165" width="143" height="90" as="geometry" />
        </mxCell>
        <mxCell id="7AM2JiQvm8H476ATyaQK-7" value="Alumno/Tutor" style="html=1;overflow=block;blockSpacing=1;shape=umlActor;labelPosition=center;verticalLabelPosition=bottom;verticalAlign=top;whiteSpace=nowrap;fontSize=13.3;fontColor=#333333;fontStyle=2;align=center;spacing=0;strokeColor=#333333;strokeOpacity=100;fillOpacity=100;rounded=1;absoluteArcSize=1;arcSize=12;fillColor=#ffffff;strokeWidth=0.8;lucidId=Yu5MdgyV5tNR;" vertex="1" parent="1">
          <mxGeometry x="258" y="165" width="60" height="135" as="geometry" />
        </mxCell>
        <mxCell id="7AM2JiQvm8H476ATyaQK-8" value="" style="html=1;jettySize=18;whiteSpace=wrap;fontSize=13;strokeColor=#333333;strokeOpacity=100;dashed=1;fixDash=1;dashPattern=16 6;strokeWidth=0.8;rounded=1;arcSize=10;edgeStyle=orthogonalEdgeStyle;startArrow=none;endArrow=none;exitX=0.5;exitY=0.532;exitPerimeter=0;lucidId=Yu5Migy3NWk_;" edge="1" parent="1" source="7AM2JiQvm8H476ATyaQK-31">
          <mxGeometry width="100" height="100" relative="1" as="geometry">
            <Array as="points" />
            <mxPoint x="293" y="958" as="targetPoint" />
          </mxGeometry>
        </mxCell>
        <mxCell id="7AM2JiQvm8H476ATyaQK-9" value="" style="html=1;jettySize=18;whiteSpace=wrap;fontSize=13;strokeColor=#333333;strokeOpacity=100;strokeWidth=0.8;rounded=1;arcSize=10;edgeStyle=orthogonalEdgeStyle;startArrow=none;endArrow=block;endFill=1;lucidId=Yu5M0A2JVvTe;" edge="1" parent="1">
          <mxGeometry width="100" height="100" relative="1" as="geometry">
            <Array as="points" />
            <mxPoint x="290" y="372" as="sourcePoint" />
            <mxPoint x="507" y="373" as="targetPoint" />
          </mxGeometry>
        </mxCell>
        <mxCell id="7AM2JiQvm8H476ATyaQK-10" value="Inicia sesion" style="text;html=1;resizable=0;labelBackgroundColor=default;align=center;verticalAlign=middle;fontStyle=2;fontColor=#333333;fontSize=13.3;" vertex="1" parent="7AM2JiQvm8H476ATyaQK-9">
          <mxGeometry relative="1" as="geometry">
            <mxPoint as="offset" />
          </mxGeometry>
        </mxCell>
        <mxCell id="7AM2JiQvm8H476ATyaQK-11" value="" style="html=1;jettySize=18;whiteSpace=wrap;fontSize=13;strokeColor=#333333;strokeOpacity=100;strokeWidth=0.8;rounded=1;arcSize=10;edgeStyle=orthogonalEdgeStyle;startArrow=none;endArrow=block;endFill=1;exitX=1.012;exitY=0.429;exitPerimeter=0;entryX=-0.012;entryY=0.376;entryPerimeter=0;lucidId=Yu5M8hheeUyh;" edge="1" parent="1" source="7AM2JiQvm8H476ATyaQK-35" target="7AM2JiQvm8H476ATyaQK-39">
          <mxGeometry width="100" height="100" relative="1" as="geometry">
            <Array as="points" />
          </mxGeometry>
        </mxCell>
        <mxCell id="7AM2JiQvm8H476ATyaQK-12" value="EnvÃ­a solicitud de &lt;br&gt;inicio de chat" style="text;html=1;resizable=0;labelBackgroundColor=default;align=center;verticalAlign=middle;fontStyle=2;fontColor=#333333;fontSize=13.3;" vertex="1" parent="7AM2JiQvm8H476ATyaQK-11">
          <mxGeometry relative="1" as="geometry">
            <mxPoint as="offset" />
          </mxGeometry>
        </mxCell>
        <mxCell id="7AM2JiQvm8H476ATyaQK-26" value="" style="html=1;jettySize=18;whiteSpace=wrap;fontSize=13;strokeColor=#333333;strokeOpacity=100;dashed=1;fixDash=1;dashPattern=16 6;strokeWidth=0.8;rounded=1;arcSize=10;edgeStyle=orthogonalEdgeStyle;startArrow=none;endArrow=none;exitX=0.5;exitY=0.532;exitPerimeter=0;lucidId=Yu5Migy3NWk_;" edge="1" parent="1" source="7AM2JiQvm8H476ATyaQK-37" target="7AM2JiQvm8H476ATyaQK-27">
          <mxGeometry width="100" height="100" relative="1" as="geometry">
            <Array as="points" />
            <mxPoint x="290" y="872" as="targetPoint" />
            <mxPoint x="288" y="265" as="sourcePoint" />
          </mxGeometry>
        </mxCell>
        <mxCell id="7AM2JiQvm8H476ATyaQK-27" value="" style="html=1;overflow=block;blockSpacing=1;whiteSpace=wrap;fontSize=13;spacing=0;strokeColor=#f2f2f2;strokeOpacity=100;fillOpacity=100;rounded=1;absoluteArcSize=1;arcSize=12;fillColor=#ced4db;strokeWidth=0.8;lucidId=Yu5MydJHa4al;" vertex="1" parent="1">
          <mxGeometry x="278" y="593" width="30" height="90" as="geometry" />
        </mxCell>
        <mxCell id="7AM2JiQvm8H476ATyaQK-30" value="" style="html=1;jettySize=18;whiteSpace=wrap;fontSize=13;strokeColor=#333333;strokeOpacity=100;dashed=1;fixDash=1;dashPattern=16 6;strokeWidth=0.8;rounded=1;arcSize=10;edgeStyle=orthogonalEdgeStyle;startArrow=none;endArrow=none;exitX=0.5;exitY=0.532;exitPerimeter=0;lucidId=Yu5Migy3NWk_;" edge="1" parent="1" source="7AM2JiQvm8H476ATyaQK-27" target="7AM2JiQvm8H476ATyaQK-31">
          <mxGeometry width="100" height="100" relative="1" as="geometry">
            <Array as="points" />
            <mxPoint x="293" y="958" as="targetPoint" />
            <mxPoint x="293" y="641" as="sourcePoint" />
          </mxGeometry>
        </mxCell>
        <mxCell id="7AM2JiQvm8H476ATyaQK-31" value="" style="html=1;overflow=block;blockSpacing=1;whiteSpace=wrap;fontSize=13;spacing=0;strokeColor=#f2f2f2;strokeOpacity=100;fillOpacity=100;rounded=1;absoluteArcSize=1;arcSize=12;fillColor=#ced4db;strokeWidth=0.8;lucidId=Yu5MydJHa4al;" vertex="1" parent="1">
          <mxGeometry x="278" y="809" width="30" height="90" as="geometry" />
        </mxCell>
        <mxCell id="7AM2JiQvm8H476ATyaQK-34" value="" style="html=1;jettySize=18;whiteSpace=wrap;fontSize=13;fontFamily=helvetica;strokeColor=#333333;strokeOpacity=100;dashed=1;fixDash=1;dashPattern=16 6;strokeWidth=0.8;rounded=0;startArrow=none;endArrow=none;exitX=0.5;exitY=1;exitPerimeter=0;entryX=0.5;entryY=0.432;entryPerimeter=0;lucidId=Yu5M4GIAFP0a;" edge="1" parent="1" source="7AM2JiQvm8H476ATyaQK-4" target="7AM2JiQvm8H476ATyaQK-35">
          <mxGeometry width="100" height="100" relative="1" as="geometry">
            <Array as="points" />
            <mxPoint x="525" y="255" as="sourcePoint" />
            <mxPoint x="524.5" y="864.9200000000003" as="targetPoint" />
          </mxGeometry>
        </mxCell>
        <mxCell id="7AM2JiQvm8H476ATyaQK-35" value="" style="html=1;overflow=block;blockSpacing=1;whiteSpace=wrap;fontSize=13;spacing=0;strokeColor=#f2f2f2;strokeOpacity=100;fillOpacity=100;rounded=1;absoluteArcSize=1;arcSize=12;fillColor=#ced4db;strokeWidth=0.8;lucidId=Yu5MhR-oMSno;" vertex="1" parent="1">
          <mxGeometry x="509.5" y="351" width="30" height="244" as="geometry" />
        </mxCell>
        <mxCell id="7AM2JiQvm8H476ATyaQK-36" value="" style="html=1;jettySize=18;whiteSpace=wrap;fontSize=13;strokeColor=#333333;strokeOpacity=100;dashed=1;fixDash=1;dashPattern=16 6;strokeWidth=0.8;rounded=1;arcSize=10;edgeStyle=orthogonalEdgeStyle;startArrow=none;endArrow=none;exitX=0.5;exitY=0.532;exitPerimeter=0;lucidId=Yu5Migy3NWk_;" edge="1" parent="1" source="7AM2JiQvm8H476ATyaQK-7" target="7AM2JiQvm8H476ATyaQK-37">
          <mxGeometry width="100" height="100" relative="1" as="geometry">
            <Array as="points" />
            <mxPoint x="293" y="593" as="targetPoint" />
            <mxPoint x="288" y="265" as="sourcePoint" />
          </mxGeometry>
        </mxCell>
        <mxCell id="7AM2JiQvm8H476ATyaQK-37" value="" style="html=1;overflow=block;blockSpacing=1;whiteSpace=wrap;fontSize=13;spacing=0;strokeColor=#f2f2f2;strokeOpacity=100;fillOpacity=100;rounded=1;absoluteArcSize=1;arcSize=12;fillColor=#ced4db;strokeWidth=0.8;lucidId=Yu5MhR-oMSno;" vertex="1" parent="1">
          <mxGeometry x="273" y="369" width="30" height="545" as="geometry" />
        </mxCell>
        <mxCell id="7AM2JiQvm8H476ATyaQK-38" value="" style="html=1;jettySize=18;whiteSpace=wrap;fontSize=13;fontFamily=helvetica;strokeColor=#333333;strokeOpacity=100;dashed=1;fixDash=1;dashPattern=16 6;strokeWidth=0.8;rounded=0;startArrow=none;endArrow=none;exitX=0.5;exitY=1;exitPerimeter=0;entryX=0.5;entryY=0.432;entryPerimeter=0;lucidId=Yu5M4GIAFP0a;" edge="1" parent="1">
          <mxGeometry width="100" height="100" relative="1" as="geometry">
            <Array as="points" />
            <mxPoint x="798" y="255" as="sourcePoint" />
            <mxPoint x="798" y="390" as="targetPoint" />
          </mxGeometry>
        </mxCell>
        <mxCell id="7AM2JiQvm8H476ATyaQK-39" value="" style="points=[[1.013,0.586,0]];html=1;overflow=block;blockSpacing=1;whiteSpace=wrap;fontSize=13;spacing=0;strokeColor=#f2f2f2;strokeOpacity=100;fillOpacity=100;rounded=1;absoluteArcSize=1;arcSize=12;fillColor=#ced4db;strokeWidth=0.8;lucidId=Yu5MsRc69goB;" vertex="1" parent="1">
          <mxGeometry x="779.5" y="345" width="30" height="272" as="geometry" />
        </mxCell>
        <mxCell id="7AM2JiQvm8H476ATyaQK-40" value="" style="html=1;jettySize=18;whiteSpace=wrap;fontSize=13;strokeColor=#333333;strokeOpacity=100;strokeWidth=0.8;rounded=1;arcSize=10;edgeStyle=orthogonalEdgeStyle;startArrow=none;endArrow=block;endFill=1;lucidId=Yu5M0A2JVvTe;" edge="1" parent="1">
          <mxGeometry width="100" height="100" relative="1" as="geometry">
            <Array as="points" />
            <mxPoint x="300" y="408" as="sourcePoint" />
            <mxPoint x="517" y="409" as="targetPoint" />
          </mxGeometry>
        </mxCell>
        <mxCell id="7AM2JiQvm8H476ATyaQK-41" value="Selecciona destinatario" style="text;html=1;resizable=0;labelBackgroundColor=default;align=center;verticalAlign=middle;fontStyle=2;fontColor=#333333;fontSize=13.3;" vertex="1" parent="7AM2JiQvm8H476ATyaQK-40">
          <mxGeometry relative="1" as="geometry">
            <mxPoint as="offset" />
          </mxGeometry>
        </mxCell>
        <mxCell id="7AM2JiQvm8H476ATyaQK-42" value="" style="html=1;jettySize=18;whiteSpace=wrap;fontSize=13;fontFamily=helvetica;strokeColor=#333333;strokeOpacity=100;strokeWidth=0.8;rounded=0;startArrow=none;endArrow=block;endFill=1;exitX=0;exitY=0.5;entryX=1;entryY=0.5;lucidId=Yu5MB3FtIlV_;exitDx=0;exitDy=0;entryDx=0;entryDy=0;" edge="1" parent="1" source="7AM2JiQvm8H476ATyaQK-43">
          <mxGeometry width="100" height="100" relative="1" as="geometry">
            <Array as="points" />
            <mxPoint x="780" y="523" as="sourcePoint" />
            <mxPoint x="539" y="523" as="targetPoint" />
          </mxGeometry>
        </mxCell>
        <mxCell id="7AM2JiQvm8H476ATyaQK-44" value="" style="html=1;jettySize=18;whiteSpace=wrap;fontSize=13;fontFamily=helvetica;strokeColor=#333333;strokeOpacity=100;strokeWidth=0.8;rounded=0;startArrow=none;endArrow=block;endFill=1;exitX=0;exitY=0.5;entryX=1;entryY=0.5;lucidId=Yu5MB3FtIlV_;exitDx=0;exitDy=0;entryDx=0;entryDy=0;" edge="1" parent="1" target="7AM2JiQvm8H476ATyaQK-43">
          <mxGeometry width="100" height="100" relative="1" as="geometry">
            <Array as="points" />
            <mxPoint x="780" y="523" as="sourcePoint" />
            <mxPoint x="539" y="523" as="targetPoint" />
          </mxGeometry>
        </mxCell>
        <mxCell id="7AM2JiQvm8H476ATyaQK-43" value="&lt;div style=&quot;text-align: center;&quot;&gt;&lt;font color=&quot;#333333&quot;&gt;&lt;span style=&quot;font-size: 13px; background-color: rgb(255, 255, 255);&quot;&gt;&lt;i&gt;Respuesta de inicio de chat&lt;/i&gt;&lt;/span&gt;&lt;/font&gt;&lt;/div&gt;" style="text;whiteSpace=wrap;html=1;" vertex="1" parent="1">
          <mxGeometry x="596.0000244140625" y="504" width="128" height="38" as="geometry" />
        </mxCell>
        <mxCell id="7AM2JiQvm8H476ATyaQK-45" value="" style="html=1;overflow=block;blockSpacing=1;whiteSpace=wrap;fontSize=13;spacing=0;strokeColor=#f2f2f2;strokeOpacity=100;fillOpacity=100;rounded=1;absoluteArcSize=1;arcSize=12;fillColor=#ced4db;strokeWidth=0.8;lucidId=Yu5MydJHa4al;" vertex="1" parent="1">
          <mxGeometry x="509.5" y="654" width="30" height="90" as="geometry" />
        </mxCell>
        <mxCell id="7AM2JiQvm8H476ATyaQK-46" value="" style="html=1;overflow=block;blockSpacing=1;whiteSpace=wrap;fontSize=13;spacing=0;strokeColor=#f2f2f2;strokeOpacity=100;fillOpacity=100;rounded=1;absoluteArcSize=1;arcSize=12;fillColor=#ced4db;strokeWidth=0.8;lucidId=Yu5MydJHa4al;" vertex="1" parent="1">
          <mxGeometry x="779.5" y="649" width="30" height="113" as="geometry" />
        </mxCell>
        <mxCell id="7AM2JiQvm8H476ATyaQK-47" value="" style="html=1;jettySize=18;whiteSpace=wrap;fontSize=13;strokeColor=#333333;strokeOpacity=100;strokeWidth=0.8;rounded=1;arcSize=10;edgeStyle=orthogonalEdgeStyle;startArrow=none;endArrow=block;endFill=1;exitX=1.012;exitY=0.429;exitPerimeter=0;entryX=-0.012;entryY=0.376;entryPerimeter=0;lucidId=Yu5M8hheeUyh;" edge="1" parent="1">
          <mxGeometry width="100" height="100" relative="1" as="geometry">
            <Array as="points">
              <mxPoint x="660.5" y="679" />
              <mxPoint x="767.5" y="680" />
              <mxPoint x="767.5" y="677" />
            </Array>
            <mxPoint x="539.5" y="679" as="sourcePoint" />
            <mxPoint x="779.5" y="677" as="targetPoint" />
          </mxGeometry>
        </mxCell>
        <mxCell id="7AM2JiQvm8H476ATyaQK-48" value="EnvÃ­ar mensaje de texto" style="text;html=1;resizable=0;labelBackgroundColor=default;align=center;verticalAlign=middle;fontStyle=2;fontColor=#333333;fontSize=13.3;" vertex="1" parent="7AM2JiQvm8H476ATyaQK-47">
          <mxGeometry relative="1" as="geometry">
            <mxPoint x="-4" y="-2" as="offset" />
          </mxGeometry>
        </mxCell>
        <mxCell id="7AM2JiQvm8H476ATyaQK-49" value="" style="html=1;jettySize=18;whiteSpace=wrap;fontSize=13;fontFamily=helvetica;strokeColor=#333333;strokeOpacity=100;dashed=1;fixDash=1;dashPattern=16 6;strokeWidth=0.8;rounded=1;arcSize=24;edgeStyle=orthogonalEdgeStyle;startArrow=none;endArrow=none;exitX=0.5;exitY=1;exitPerimeter=0;lucidId=Yu5M5Qxgzhy9;" edge="1" parent="1" source="7AM2JiQvm8H476ATyaQK-6" target="7AM2JiQvm8H476ATyaQK-16">
          <mxGeometry width="100" height="100" relative="1" as="geometry">
            <Array as="points" />
            <mxPoint x="1065" y="947" as="targetPoint" />
            <mxPoint x="1066" y="255" as="sourcePoint" />
          </mxGeometry>
        </mxCell>
        <mxCell id="7AM2JiQvm8H476ATyaQK-16" value="" style="html=1;overflow=block;blockSpacing=1;whiteSpace=wrap;fontSize=13;spacing=0;strokeColor=#f2f2f2;strokeOpacity=100;fillOpacity=100;rounded=1;absoluteArcSize=1;arcSize=12;fillColor=#ced4db;strokeWidth=0.8;lucidId=Yu5MydJHa4al;" vertex="1" parent="1">
          <mxGeometry x="1047" y="641" width="30" height="122" as="geometry" />
        </mxCell>
        <mxCell id="7AM2JiQvm8H476ATyaQK-52" value="" style="html=1;jettySize=18;whiteSpace=wrap;fontSize=13;strokeColor=#333333;strokeOpacity=100;strokeWidth=0.8;rounded=1;arcSize=10;edgeStyle=orthogonalEdgeStyle;startArrow=none;endArrow=block;endFill=1;lucidId=Yu5M0A2JVvTe;" edge="1" parent="1">
          <mxGeometry width="100" height="100" relative="1" as="geometry">
            <Array as="points" />
            <mxPoint x="813" y="693.22" as="sourcePoint" />
            <mxPoint x="1030" y="694.22" as="targetPoint" />
          </mxGeometry>
        </mxCell>
        <mxCell id="7AM2JiQvm8H476ATyaQK-53" value="Almacena &lt;br&gt;en la base &lt;br&gt;de datos&amp;nbsp;" style="text;html=1;resizable=0;labelBackgroundColor=default;align=center;verticalAlign=middle;fontStyle=2;fontColor=#333333;fontSize=13.3;" vertex="1" parent="7AM2JiQvm8H476ATyaQK-52">
          <mxGeometry relative="1" as="geometry">
            <mxPoint as="offset" />
          </mxGeometry>
        </mxCell>
        <mxCell id="7AM2JiQvm8H476ATyaQK-58" value="" style="html=1;jettySize=18;whiteSpace=wrap;fontSize=13;fontFamily=helvetica;strokeColor=#333333;strokeOpacity=100;strokeWidth=0.8;rounded=0;startArrow=none;endArrow=block;endFill=1;exitX=0;exitY=0.5;entryX=1;entryY=0.5;lucidId=Yu5MB3FtIlV_;exitDx=0;exitDy=0;entryDx=0;entryDy=0;" edge="1" parent="1" source="7AM2JiQvm8H476ATyaQK-69">
          <mxGeometry width="100" height="100" relative="1" as="geometry">
            <Array as="points" />
            <mxPoint x="779.5" y="726" as="sourcePoint" />
            <mxPoint x="538.5" y="726" as="targetPoint" />
          </mxGeometry>
        </mxCell>
        <mxCell id="7AM2JiQvm8H476ATyaQK-59" value="&lt;div style=&quot;text-align: center;&quot;&gt;&lt;span style=&quot;background-color: initial; font-size: 13px;&quot;&gt;&lt;font color=&quot;#333333&quot;&gt;&lt;i&gt;EnvÃ­a&lt;/i&gt;&lt;/font&gt;&lt;/span&gt;&lt;/div&gt;&lt;div style=&quot;text-align: center;&quot;&gt;&lt;font color=&quot;#333333&quot;&gt;&lt;span style=&quot;font-size: 13px; background-color: rgb(255, 255, 255);&quot;&gt;&lt;i&gt;&amp;nbsp;mensaje al receptor&lt;/i&gt;&lt;/span&gt;&lt;/font&gt;&lt;/div&gt;" style="text;whiteSpace=wrap;html=1;" vertex="1" parent="1">
          <mxGeometry x="492.0000244140625" y="858" width="128" height="38" as="geometry" />
        </mxCell>
        <mxCell id="7AM2JiQvm8H476ATyaQK-60" value="" style="html=1;overflow=block;blockSpacing=1;whiteSpace=wrap;fontSize=13;spacing=0;strokeColor=#f2f2f2;strokeOpacity=100;fillOpacity=100;rounded=1;absoluteArcSize=1;arcSize=12;fillColor=#ced4db;strokeWidth=0.8;lucidId=Yu5MydJHa4al;" vertex="1" parent="1">
          <mxGeometry x="779.5" y="812" width="30" height="122" as="geometry" />
        </mxCell>
        <mxCell id="7AM2JiQvm8H476ATyaQK-61" value="" style="html=1;jettySize=18;whiteSpace=wrap;fontSize=13;fontFamily=helvetica;strokeColor=#333333;strokeOpacity=100;strokeWidth=0.8;rounded=0;startArrow=none;endArrow=block;endFill=1;exitX=0;exitY=0.5;entryX=1;entryY=0.925;lucidId=Yu5MB3FtIlV_;exitDx=0;exitDy=0;entryDx=0;entryDy=0;entryPerimeter=0;" edge="1" parent="1" source="7AM2JiQvm8H476ATyaQK-60" target="7AM2JiQvm8H476ATyaQK-37">
          <mxGeometry width="100" height="100" relative="1" as="geometry">
            <Array as="points" />
            <mxPoint x="780.5" y="880" as="sourcePoint" />
            <mxPoint x="539.5" y="880" as="targetPoint" />
          </mxGeometry>
        </mxCell>
        <mxCell id="7AM2JiQvm8H476ATyaQK-67" value="" style="endArrow=none;dashed=1;html=1;dashPattern=1 3;strokeWidth=2;rounded=0;entryX=0.5;entryY=1;entryDx=0;entryDy=0;exitX=0.5;exitY=0;exitDx=0;exitDy=0;" edge="1" parent="1" source="7AM2JiQvm8H476ATyaQK-45" target="7AM2JiQvm8H476ATyaQK-35">
          <mxGeometry width="50" height="50" relative="1" as="geometry">
            <mxPoint x="499.5" y="652" as="sourcePoint" />
            <mxPoint x="549.5" y="602" as="targetPoint" />
          </mxGeometry>
        </mxCell>
        <mxCell id="7AM2JiQvm8H476ATyaQK-68" value="" style="endArrow=none;dashed=1;html=1;rounded=0;exitX=0.5;exitY=0;exitDx=0;exitDy=0;" edge="1" parent="1" source="7AM2JiQvm8H476ATyaQK-46" target="7AM2JiQvm8H476ATyaQK-39">
          <mxGeometry width="50" height="50" relative="1" as="geometry">
            <mxPoint x="747" y="671" as="sourcePoint" />
            <mxPoint x="797" y="621" as="targetPoint" />
          </mxGeometry>
        </mxCell>
        <mxCell id="7AM2JiQvm8H476ATyaQK-70" value="" style="html=1;jettySize=18;whiteSpace=wrap;fontSize=13;fontFamily=helvetica;strokeColor=#333333;strokeOpacity=100;strokeWidth=0.8;rounded=0;startArrow=none;endArrow=block;endFill=1;exitX=0;exitY=0.5;entryX=1;entryY=0.5;lucidId=Yu5MB3FtIlV_;exitDx=0;exitDy=0;entryDx=0;entryDy=0;" edge="1" parent="1" target="7AM2JiQvm8H476ATyaQK-69">
          <mxGeometry width="100" height="100" relative="1" as="geometry">
            <Array as="points" />
            <mxPoint x="779.5" y="726" as="sourcePoint" />
            <mxPoint x="538.5" y="726" as="targetPoint" />
          </mxGeometry>
        </mxCell>
        <mxCell id="7AM2JiQvm8H476ATyaQK-69" value="Procesa mensaje de&amp;nbsp;&lt;br&gt;texto" style="text;html=1;resizable=0;labelBackgroundColor=default;align=center;verticalAlign=middle;fontStyle=2;fontColor=#333333;fontSize=13.3;" vertex="1" parent="1">
          <mxGeometry x="654.9985558324728" y="725.0033376379536" as="geometry" />
        </mxCell>
      </root>
    </mxGraphModel>
  </diagram>
</mxfile>
